<?xml version="1.0" encoding="utf-8"?>
<!-- Generator: Adobe Illustrator 26.0.2, SVG Export Plug-In . SVG Version: 6.00 Build 0)  -->
<svg version="1.1" id="Layer_1" xmlns="http://www.w3.org/2000/svg" xmlns:xlink="http://www.w3.org/1999/xlink" x="0px" y="0px"
	 viewBox="0 0 180 180" style="enable-background:new 0 0 180 180;" xml:space="preserve">
<style type="text/css">
	.st0{fill:none;stroke:#FFFFFF;stroke-width:3;stroke-linecap:round;stroke-linejoin:round;stroke-miterlimit:10;}
	.st1{fill:none;stroke:#FFFFFF;stroke-width:3;stroke-miterlimit:10;}
	.st2{fill:#182232;}
	.st3{fill:#EA4F56;}
</style>
<g>
	<path class="st0" d="M63.2,142.4c-2.5,2.5-6.5,2.5-9,0l-16.9-16.8c-2.5-2.5-2.5-6.5,0-8.9l82.4-81.9c2.5-2.5,6.5-2.5,9,0l16.9,16.8
		c2.5,2.5,2.5,6.4,0,8.9L63.2,142.4z"/>
	<path class="st0" d="M59.7,82.6L37.3,60.4c-2.5-2.5-2.5-6.4,0-8.9l16.9-16.8c2.5-2.5,6.5-2.5,9,0l22,21.9"/>
	<path class="st0" d="M123.2,94.4l22.4,22.3c2.5,2.5,2.5,6.4,0,8.9l-16.9,16.8c-2.5,2.5-6.5,2.5-9,0l-22.4-22.3"/>
	<line class="st0" x1="115" y1="39.4" x2="140.9" y2="65.1"/>
	<g>
		<line class="st0" x1="123.6" y1="48" x2="41.5" y2="129.7"/>
		<line class="st0" x1="132.2" y1="56.6" x2="50.1" y2="138.3"/>
	</g>
	<path class="st0" d="M59.5,144.2l-24.8,3c-1.2,0-2.1-0.9-2.1-2.1l3-24.7"/>
	<line class="st0" x1="79.5" y1="50.9" x2="72.5" y2="57.9"/>
	<line class="st0" x1="128.7" y1="99.8" x2="121.7" y2="106.8"/>
	<line class="st0" x1="70.6" y1="42.1" x2="59.5" y2="53.1"/>
	<line class="st0" x1="137.2" y1="108.3" x2="126.1" y2="119.3"/>
</g>
</svg>
